<svg width="24" height="24" viewBox="0 0 24 24" fill="none" xmlns="http://www.w3.org/2000/svg">
<path d="M9 17C8.45 17 7.97917 16.8042 7.5875 16.4125C7.19583 16.0208 7 15.55 7 15V5C7 4.45 7.19583 3.97917 7.5875 3.5875C7.97917 3.19583 8.45 3 9 3H19C19.55 3 20.0208 3.19583 20.4125 3.5875C20.8042 3.97917 21 4.45 21 5V15C21 15.55 20.8042 16.0208 20.4125 16.4125C20.0208 16.8042 19.55 17 19 17H9ZM9 15H19V5H9V15ZM5 19V21C4.45 21 3.97917 20.8042 3.5875 20.4125C3.19583 20.0208 3 19.55 3 19H5ZM3 17V15H5V17H3ZM3 13V11H5V13H3ZM3 9V7H5V9H3ZM7 21V19H9V21H7ZM11 21V19H13V21H11ZM15 21V19H17V21H15Z" fill="#1F7E99"/>
</svg>
