<svg width="99" height="41" viewBox="0 0 99 41" fill="none" xmlns="http://www.w3.org/2000/svg">
<path d="M21.1738 18.9933C21.6056 19.2793 21.9705 19.618 22.2683 20.0094C22.581 20.3857 22.8267 20.8524 23.0054 21.4093C23.199 22.0265 23.2958 22.6512 23.2958 23.2834C23.3107 23.9006 23.199 24.4801 22.9607 25.022C22.7373 25.5489 22.3725 26.0155 21.8662 26.422C21.3748 26.8133 20.7271 27.0918 19.923 27.2574C19.4911 27.3628 18.9848 27.4456 18.4041 27.5058C17.8234 27.566 17.3022 27.5961 16.8406 27.5961C16.2598 27.6111 15.6568 27.6111 15.0313 27.5961C14.4208 27.5961 13.8252 27.5359 13.2444 27.4155C12.9913 27.3402 12.8051 27.2122 12.686 27.0316C12.5818 26.8359 12.5073 26.6176 12.4626 26.3768C12.4031 26.2413 12.3733 26.1058 12.3733 25.9704V13.1452C12.3733 12.7237 12.4552 12.4001 12.619 12.1743C12.7977 11.9335 13.0285 11.7604 13.3114 11.655C13.5944 11.5346 13.9145 11.4668 14.2719 11.4518C14.6293 11.4217 15.0016 11.4066 15.3887 11.4066C15.6865 11.4066 15.9844 11.4066 16.2822 11.4066C16.5949 11.3916 16.9076 11.3916 17.2203 11.4066C17.7117 11.4217 18.218 11.4668 18.7392 11.5421C19.2752 11.6023 19.7815 11.7227 20.258 11.9034C20.4814 11.9786 20.7196 12.084 20.9728 12.2195C21.2259 12.3399 21.4269 12.4904 21.5759 12.6711C22.0524 13.1076 22.4023 13.6194 22.6257 14.2065C22.8639 14.7785 22.9682 15.3655 22.9384 15.9677C22.9086 16.5547 22.7448 17.1192 22.447 17.6611C22.164 18.203 21.7397 18.6471 21.1738 18.9933ZM17.265 24.9769C17.7266 24.9468 18.1957 24.8941 18.6722 24.8188C19.1486 24.7436 19.4762 24.6005 19.6549 24.3898C19.8485 24.149 19.9825 23.8705 20.057 23.5544C20.1463 23.2232 20.1687 22.892 20.124 22.5609C20.0942 22.2147 19.9974 21.891 19.8336 21.59C19.6847 21.2738 19.4837 21.0255 19.2305 20.8448C18.8881 20.5739 18.4935 20.4008 18.0468 20.3255C17.6 20.2352 17.1607 20.19 16.7289 20.19C16.5204 20.19 16.3269 20.1976 16.1482 20.2126C15.9844 20.2126 15.8354 20.2352 15.7014 20.2803C15.5823 20.3104 15.493 20.3782 15.4334 20.4836C15.3738 20.5889 15.344 20.747 15.344 20.9577C15.3738 21.3491 15.3738 21.7405 15.344 22.1319C15.3143 22.5232 15.2994 22.8996 15.2994 23.2608C15.2994 23.4716 15.2919 23.7049 15.277 23.9608C15.277 24.2016 15.3589 24.4049 15.5227 24.5704C15.6865 24.736 15.9248 24.8489 16.2375 24.9091C16.5502 24.9693 16.8927 24.9919 17.265 24.9769ZM17.7117 14.1387C17.2501 14.1237 16.8629 14.1161 16.5502 14.1161C16.2524 14.1011 16.0141 14.1237 15.8354 14.1839C15.6716 14.229 15.5525 14.3419 15.4781 14.5226C15.4185 14.6882 15.3962 14.9441 15.4111 15.2903C15.4111 15.5763 15.4036 15.8623 15.3887 16.1483C15.3887 16.4193 15.3887 16.6902 15.3887 16.9612C15.3887 17.2622 15.4855 17.488 15.6791 17.6385C15.8727 17.774 16.1109 17.8568 16.3939 17.8869C16.6917 17.917 16.9969 17.917 17.3097 17.8869C17.6373 17.8568 17.9202 17.8192 18.1584 17.774C18.6945 17.6837 19.1039 17.5031 19.3869 17.2321C19.6847 16.9461 19.8559 16.5322 19.9006 15.9902C19.9602 15.3129 19.7815 14.8462 19.3645 14.5903C18.9625 14.3194 18.4116 14.1688 17.7117 14.1387ZM32.5351 24.2318C32.7138 24.1866 32.8925 24.1565 33.0711 24.1414C33.2647 24.1264 33.436 24.149 33.5849 24.2092C33.7487 24.2694 33.8827 24.3748 33.9869 24.5253C34.0912 24.6608 34.1433 24.8565 34.1433 25.1124C34.1433 25.293 34.0986 25.4661 34.0093 25.6317C33.9199 25.7973 33.8082 25.9478 33.6742 26.0833C33.5402 26.2187 33.3913 26.3392 33.2275 26.4445C33.0637 26.5349 32.9073 26.6101 32.7584 26.6703C32.3266 26.866 31.8277 27.0166 31.2619 27.1219C30.7109 27.2273 30.1376 27.2649 29.542 27.2348C28.7379 27.2047 27.9635 27.0467 27.219 26.7607C26.4893 26.4596 25.916 25.9704 25.4991 25.293C25.1119 24.6307 24.8811 23.8931 24.8066 23.0802C24.7322 22.2673 24.7694 21.4996 24.9183 20.7771C25.0821 19.904 25.3576 19.1965 25.7448 18.6546C26.1468 18.0977 26.6233 17.6536 27.1743 17.3224C27.8444 16.9311 28.5964 16.7278 29.4303 16.7128C30.2642 16.6977 31.0609 16.8633 31.8203 17.2095C32.3266 17.4353 32.7808 17.7439 33.1828 18.1353C33.5849 18.5116 33.8901 18.9707 34.0986 19.5126C34.1582 19.6481 34.2029 19.8137 34.2326 20.0094C34.2773 20.2051 34.3071 20.4158 34.322 20.6416C34.3369 20.8524 34.3369 21.0631 34.322 21.2738C34.3071 21.4846 34.2699 21.6727 34.2103 21.8383C34.121 22.1093 34.0093 22.32 33.8753 22.4706C33.7412 22.6211 33.57 22.734 33.3615 22.8092C33.153 22.8845 32.8999 22.9372 32.6021 22.9673C32.3191 22.9824 31.9767 22.9974 31.5746 23.0125C31.2172 23.0275 30.8822 23.035 30.5695 23.035C30.2567 23.035 29.9366 23.035 29.609 23.035C29.2814 23.02 28.9389 23.0125 28.5815 23.0125C28.239 22.9974 27.8518 22.9824 27.42 22.9673C27.3753 23.2684 27.4126 23.5318 27.5317 23.7576C27.6657 23.9683 27.8444 24.149 28.0678 24.2995C28.2911 24.435 28.5443 24.5403 28.8272 24.6156C29.1101 24.6909 29.3856 24.736 29.6537 24.7511C30.16 24.7812 30.6439 24.7436 31.1055 24.6382C31.5672 24.5178 32.0437 24.3823 32.5351 24.2318ZM31.5746 19.8513C31.2917 19.5202 30.9939 19.2793 30.6811 19.1288C30.4429 19.0234 30.1897 18.9783 29.9217 18.9933C29.6686 18.9933 29.4228 19.0309 29.1846 19.1062C28.7528 19.2116 28.3879 19.4374 28.0901 19.7836C28.0603 19.8137 28.0082 19.889 27.9338 20.0094C27.8593 20.1148 27.7848 20.2277 27.7104 20.3481C27.6508 20.4685 27.6061 20.5814 27.5764 20.6868C27.5466 20.7921 27.5615 20.8448 27.621 20.8448H31.999C31.9841 20.6341 31.9469 20.461 31.8873 20.3255C31.8277 20.175 31.7235 20.0169 31.5746 19.8513ZM43.8561 24.2318C44.0348 24.1866 44.2135 24.1565 44.3922 24.1414C44.5858 24.1264 44.757 24.149 44.906 24.2092C45.0698 24.2694 45.2038 24.3748 45.308 24.5253C45.4122 24.6608 45.4644 24.8565 45.4644 25.1124C45.4644 25.293 45.4197 25.4661 45.3303 25.6317C45.241 25.7973 45.1293 25.9478 44.9953 26.0833C44.8613 26.2187 44.7124 26.3392 44.5486 26.4445C44.3848 26.5349 44.2284 26.6101 44.0795 26.6703C43.6477 26.866 43.1488 27.0166 42.583 27.1219C42.032 27.2273 41.4587 27.2649 40.863 27.2348C40.0589 27.2047 39.2846 27.0467 38.54 26.7607C37.8104 26.4596 37.2371 25.9704 36.8201 25.293C36.433 24.6307 36.2022 23.8931 36.1277 23.0802C36.0533 22.2673 36.0905 21.4996 36.2394 20.7771C36.4032 19.904 36.6787 19.1965 37.0658 18.6546C37.4679 18.0977 37.9444 17.6536 38.4954 17.3224C39.1655 16.9311 39.9175 16.7278 40.7514 16.7128C41.5853 16.6977 42.3819 16.8633 43.1414 17.2095C43.6477 17.4353 44.1018 17.7439 44.5039 18.1353C44.906 18.5116 45.2112 18.9707 45.4197 19.5126C45.4793 19.6481 45.5239 19.8137 45.5537 20.0094C45.5984 20.2051 45.6282 20.4158 45.6431 20.6416C45.6579 20.8524 45.6579 21.0631 45.6431 21.2738C45.6282 21.4846 45.5909 21.6727 45.5314 21.8383C45.442 22.1093 45.3303 22.32 45.1963 22.4706C45.0623 22.6211 44.8911 22.734 44.6826 22.8092C44.4741 22.8845 44.221 22.9372 43.9231 22.9673C43.6402 22.9824 43.2977 22.9974 42.8957 23.0125C42.5383 23.0275 42.2032 23.035 41.8905 23.035C41.5778 23.035 41.2577 23.035 40.9301 23.035C40.6025 23.02 40.26 23.0125 39.9026 23.0125C39.5601 22.9974 39.1729 22.9824 38.7411 22.9673C38.6964 23.2684 38.7336 23.5318 38.8528 23.7576C38.9868 23.9683 39.1655 24.149 39.3888 24.2995C39.6122 24.435 39.8653 24.5403 40.1483 24.6156C40.4312 24.6909 40.7067 24.736 40.9747 24.7511C41.481 24.7812 41.965 24.7436 42.4266 24.6382C42.8882 24.5178 43.3647 24.3823 43.8561 24.2318ZM42.8957 19.8513C42.6127 19.5202 42.3149 19.2793 42.0022 19.1288C41.764 19.0234 41.5108 18.9783 41.2428 18.9933C40.9896 18.9933 40.7439 19.0309 40.5057 19.1062C40.0738 19.2116 39.709 19.4374 39.4112 19.7836C39.3814 19.8137 39.3293 19.889 39.2548 20.0094C39.1804 20.1148 39.1059 20.2277 39.0315 20.3481C38.9719 20.4685 38.9272 20.5814 38.8974 20.6868C38.8676 20.7921 38.8825 20.8448 38.9421 20.8448H43.3201C43.3052 20.6341 43.2679 20.461 43.2084 20.3255C43.1488 20.175 43.0446 20.0169 42.8957 19.8513Z" fill="#FFC01D"/>
<path d="M52.7869 23.3511C52.504 23.1705 52.1838 23.0275 51.8264 22.9221C51.4839 22.8168 51.1266 22.7189 50.7543 22.6286C50.3969 22.5383 50.047 22.4404 49.7045 22.3351C49.362 22.2146 49.0493 22.0491 48.7663 21.8383C48.1558 21.3717 47.7984 20.7997 47.6942 20.1223C47.6048 19.4298 47.7538 18.7374 48.1409 18.045C48.3494 17.6837 48.6249 17.3902 48.9674 17.1644C49.3099 16.9235 49.6821 16.7429 50.0842 16.6225C50.5011 16.487 50.9255 16.4117 51.3574 16.3967C51.7892 16.3816 52.1987 16.4042 52.5859 16.4644C52.839 16.5096 53.1071 16.5773 53.39 16.6676C53.6729 16.7429 53.9335 16.8483 54.1718 16.9837C54.4249 17.1192 54.6483 17.2923 54.8419 17.5031C55.0503 17.6988 55.1992 17.9471 55.2886 18.2482C55.3482 18.4439 55.3556 18.632 55.3109 18.8127C55.2812 18.9933 55.2067 19.1438 55.0876 19.2643C54.9833 19.3847 54.8419 19.475 54.6632 19.5352C54.4994 19.5954 54.3207 19.6105 54.1271 19.5804C53.9037 19.5352 53.6953 19.4675 53.5017 19.3772C53.3081 19.2868 53.1145 19.189 52.9209 19.0836C52.7273 18.9783 52.5263 18.8879 52.3178 18.8127C52.1243 18.7374 51.9158 18.6998 51.6924 18.6998C51.3499 18.6847 51.067 18.7449 50.8436 18.8804C50.6203 19.0159 50.4639 19.1815 50.3746 19.3772C50.3001 19.5729 50.3076 19.7836 50.3969 20.0094C50.5011 20.2352 50.7096 20.4309 51.0223 20.5965C51.3053 20.747 51.618 20.8674 51.9605 20.9577C52.303 21.048 52.638 21.1384 52.9656 21.2287C53.3081 21.319 53.6357 21.4244 53.9484 21.5448C54.276 21.6652 54.5664 21.8308 54.8195 22.0415C55.3109 22.448 55.6088 22.9221 55.713 23.464C55.8321 24.006 55.8023 24.5403 55.6236 25.0672C55.445 25.594 55.1322 26.0607 54.6855 26.4671C54.2537 26.8735 53.7399 27.1445 53.1443 27.28C52.7125 27.3703 52.2434 27.4155 51.7371 27.4155C51.2457 27.4155 50.7543 27.3628 50.2629 27.2574C49.7864 27.152 49.3248 26.9864 48.878 26.7606C48.4462 26.5349 48.0814 26.2488 47.7835 25.9026C47.5751 25.6618 47.4634 25.3908 47.4485 25.0898C47.4485 24.7737 47.5081 24.5027 47.6272 24.2769C47.7612 24.0361 47.9473 23.8705 48.1856 23.7802C48.4238 23.6898 48.6919 23.7425 48.9897 23.9382C49.228 24.1038 49.5109 24.2694 49.8385 24.435C50.1661 24.5855 50.4937 24.7059 50.8213 24.7962C51.1489 24.8866 51.4616 24.9317 51.7594 24.9317C52.0721 24.9317 52.3402 24.864 52.5635 24.7285C52.8911 24.5178 53.0624 24.2769 53.0773 24.006C53.0922 23.7199 52.9954 23.5017 52.7869 23.3511ZM60.2049 17.8192C60.6516 17.5934 61.1207 17.4353 61.6121 17.345C62.1035 17.2396 62.5874 17.2171 63.0639 17.2773C63.5553 17.3224 64.0244 17.4504 64.4711 17.6611C64.9179 17.8568 65.3348 18.1428 65.722 18.5191C66.1091 18.9105 66.407 19.3395 66.6154 19.8062C66.8239 20.2728 66.9728 20.7921 67.0622 21.3642C67.1217 21.7555 67.2185 22.1168 67.3525 22.448C67.4866 22.7791 67.628 23.1103 67.7769 23.4415C67.9407 23.7726 68.0896 24.1038 68.2237 24.435C68.3726 24.7661 68.4917 25.1123 68.581 25.4736C68.6555 25.8198 68.6257 26.1585 68.4917 26.4897C68.3726 26.8058 68.1194 27.0015 67.7323 27.0768C67.5089 27.1219 67.293 27.1069 67.0845 27.0316C66.8909 26.9413 66.7122 26.8209 66.5484 26.6703C66.3846 26.5047 66.2357 26.3316 66.1017 26.151C65.9826 25.9553 65.8709 25.7747 65.7666 25.6091C65.4242 26.0607 65.0519 26.4144 64.6498 26.6703C64.2478 26.9112 63.7638 27.0692 63.1979 27.1445C62.7214 27.2047 62.2673 27.2198 61.8354 27.1897C61.4036 27.1596 60.942 27.0768 60.4506 26.9413C59.8102 26.7757 59.2816 26.4897 58.8647 26.0833C58.4626 25.6618 58.1499 25.1801 57.9265 24.6382C57.7181 24.0812 57.6064 23.4866 57.5915 22.8544C57.5766 22.2222 57.6511 21.5975 57.8149 20.9803C58.0233 20.1674 58.336 19.5051 58.753 18.9933C59.1699 18.4815 59.6539 18.0901 60.2049 17.8192ZM60.7633 20.461C60.5548 20.6717 60.391 20.9201 60.2719 21.2061C60.1527 21.4921 60.0783 21.7932 60.0485 22.1093C60.0336 22.4254 60.0634 22.7415 60.1379 23.0576C60.2123 23.3737 60.3314 23.6522 60.4952 23.8931C60.6441 24.1038 60.8973 24.2844 61.2547 24.435C61.6121 24.5704 61.9843 24.6532 62.3715 24.6833C62.8182 24.7134 63.2054 24.593 63.533 24.3221C63.8755 24.0511 64.1286 23.7124 64.2924 23.306C64.4711 22.8845 64.553 22.4404 64.5381 21.9738C64.5232 21.4921 64.3967 21.0556 64.1584 20.6642C63.9797 20.3782 63.7415 20.1674 63.4436 20.032C63.1607 19.8965 62.8555 19.8288 62.5279 19.8288C62.2003 19.8137 61.8727 19.8664 61.5451 19.9868C61.2323 20.0922 60.9717 20.2502 60.7633 20.461ZM75.7375 17.774C75.9906 17.8493 76.1544 17.9923 76.2289 18.203C76.3033 18.3987 76.3257 18.6095 76.2959 18.8353C76.2065 19.3019 75.9534 19.5879 75.5364 19.6933C75.2982 19.7535 75.0525 19.7836 74.7993 19.7836C74.5611 19.7836 74.3154 19.7911 74.0622 19.8062V25.022C74.0622 25.3833 74.0399 25.7521 73.9952 26.1284C73.9952 26.2639 73.958 26.4069 73.8835 26.5574C73.8538 26.6327 73.8314 26.6779 73.8165 26.6929C73.8165 26.723 73.8016 26.7682 73.7719 26.8284C73.6825 26.994 73.5634 27.1294 73.4145 27.2348C73.0869 27.4155 72.7369 27.4606 72.3647 27.3703C72.1413 27.3251 71.97 27.2499 71.8509 27.1445C71.7169 27.0391 71.6201 26.9112 71.5605 26.7606C71.5308 26.6854 71.5084 26.6101 71.4935 26.5349C71.4786 26.4596 71.4563 26.3843 71.4265 26.3091C71.4116 26.2338 71.3967 26.1661 71.3819 26.1058C71.3819 26.0306 71.3819 25.9704 71.3819 25.9252V24.6156C71.3819 23.8328 71.3819 23.02 71.3819 22.177C71.3967 21.334 71.4042 20.5212 71.4042 19.7384C71.0617 19.7234 70.7043 19.7159 70.332 19.7159C69.9747 19.7008 69.7141 19.6105 69.5503 19.4449C69.4609 19.3546 69.4013 19.2417 69.3716 19.1062C69.3418 18.9557 69.3269 18.8052 69.3269 18.6546C69.3418 18.5041 69.3716 18.3686 69.4162 18.2482C69.4609 18.1127 69.5205 18.0149 69.5949 17.9547C69.7885 17.774 69.9598 17.6762 70.1087 17.6611C70.2725 17.631 70.4735 17.6084 70.7118 17.5934C70.7415 17.5934 70.8383 17.5934 71.0021 17.5934C71.1808 17.5783 71.2925 17.5708 71.3372 17.5708C71.3521 17.059 71.367 16.5472 71.3819 16.0354C71.3967 15.5236 71.4414 15.057 71.5159 14.6355C71.6052 14.1989 71.7318 13.8226 71.8956 13.5065C72.0743 13.1753 72.3423 12.927 72.6997 12.7614C73.1315 12.5657 73.6229 12.4453 74.1739 12.4001C74.7249 12.3549 75.2237 12.4227 75.6705 12.6033C75.8789 12.6786 76.08 12.8291 76.2735 13.0549C76.482 13.2807 76.5788 13.5291 76.5639 13.8C76.549 14.071 76.4969 14.3194 76.4076 14.5452C76.3182 14.771 76.1246 14.9215 75.8268 14.9967C75.6928 15.0269 75.5513 15.0419 75.4024 15.0419C75.2684 15.0269 75.1269 15.0193 74.978 15.0193C74.8291 15.0193 74.6877 15.0419 74.5536 15.0871C74.4345 15.1172 74.3303 15.1849 74.2409 15.2903C74.1665 15.3806 74.1144 15.501 74.0846 15.6516C74.0697 15.8021 74.0548 15.9601 74.0399 16.1257C74.025 16.2913 74.0176 16.4569 74.0176 16.6225C74.0325 16.773 74.0399 16.9009 74.0399 17.0063V17.5708C74.3824 17.6009 74.6951 17.6235 74.978 17.6385C75.2758 17.6536 75.529 17.6988 75.7375 17.774ZM85.148 24.2317C85.3267 24.1866 85.5054 24.1565 85.6841 24.1414C85.8777 24.1264 86.0489 24.149 86.1978 24.2092C86.3616 24.2694 86.4957 24.3748 86.5999 24.5253C86.7041 24.6608 86.7563 24.8564 86.7563 25.1123C86.7563 25.293 86.7116 25.4661 86.6222 25.6317C86.5329 25.7973 86.4212 25.9478 86.2872 26.0833C86.1532 26.2187 86.0043 26.3392 85.8405 26.4445C85.6767 26.5349 85.5203 26.6101 85.3714 26.6703C84.9396 26.866 84.4407 27.0166 83.8748 27.1219C83.3239 27.2273 82.7506 27.2649 82.1549 27.2348C81.3508 27.2047 80.5765 27.0467 79.8319 26.7606C79.1023 26.4596 78.529 25.9704 78.112 25.293C77.7249 24.6307 77.494 23.8931 77.4196 23.0802C77.3451 22.2673 77.3824 21.4996 77.5313 20.7771C77.6951 19.904 77.9706 19.1965 78.3577 18.6546C78.7598 18.0977 79.2363 17.6536 79.7873 17.3224C80.4574 16.9311 81.2094 16.7278 82.0432 16.7128C82.8771 16.6977 83.6738 16.8633 84.4333 17.2095C84.9395 17.4353 85.3937 17.7439 85.7958 18.1353C86.1978 18.5116 86.5031 18.9707 86.7116 19.5126C86.7711 19.6481 86.8158 19.8137 86.8456 20.0094C86.8903 20.2051 86.9201 20.4158 86.9349 20.6416C86.9498 20.8524 86.9498 21.0631 86.9349 21.2738C86.9201 21.4846 86.8828 21.6727 86.8233 21.8383C86.7339 22.1093 86.6222 22.32 86.4882 22.4706C86.3542 22.6211 86.1829 22.734 85.9745 22.8092C85.766 22.8845 85.5129 22.9372 85.215 22.9673C84.9321 22.9824 84.5896 22.9974 84.1876 23.0125C83.8302 23.0275 83.4951 23.035 83.1824 23.035C82.8697 23.035 82.5495 23.035 82.2219 23.035C81.8943 23.02 81.5518 23.0125 81.1945 23.0125C80.852 22.9974 80.4648 22.9824 80.033 22.9673C79.9883 23.2684 80.0255 23.5318 80.1446 23.7576C80.2787 23.9683 80.4574 24.149 80.6807 24.2995C80.9041 24.435 81.1572 24.5403 81.4402 24.6156C81.7231 24.6909 81.9986 24.736 82.2666 24.7511C82.7729 24.7812 83.2569 24.7435 83.7185 24.6382C84.1801 24.5178 84.6566 24.3823 85.148 24.2317ZM84.1876 19.8513C83.9046 19.5202 83.6068 19.2793 83.2941 19.1288C83.0558 19.0234 82.8027 18.9783 82.5347 18.9933C82.2815 18.9933 82.0358 19.0309 81.7975 19.1062C81.3657 19.2116 81.0009 19.4374 80.7031 19.7836C80.6733 19.8137 80.6212 19.889 80.5467 20.0094C80.4722 20.1148 80.3978 20.2277 80.3233 20.3481C80.2638 20.4685 80.2191 20.5814 80.1893 20.6868C80.1595 20.7921 80.1744 20.8448 80.234 20.8448H84.6119C84.5971 20.6341 84.5598 20.461 84.5003 20.3255C84.4407 20.175 84.3365 20.0169 84.1876 19.8513Z" fill="black"/>
<path d="M18.3386 21.4003C17.8035 21.4818 17.2679 21.4857 16.7317 21.4123C16.1905 21.3546 15.6844 21.214 15.2135 20.9907C14.7222 20.7777 14.2813 20.4871 13.8909 20.1187C13.4954 19.7658 13.1606 19.33 12.8864 18.8112C12.6172 18.2769 12.4526 17.7341 12.3924 17.1827C12.3322 16.6314 12.3509 16.0459 12.4483 15.4264C12.5166 15.003 12.5366 14.598 12.5083 14.2114C12.4799 13.8249 12.4439 13.4358 12.4002 13.0442C12.3412 12.6475 12.2975 12.2559 12.2691 11.8694C12.2255 11.4778 12.2174 11.0808 12.2451 10.6783C12.2831 10.2964 12.426 9.95754 12.6738 9.66173C12.9012 9.37638 13.2269 9.26049 13.6507 9.31402C13.8958 9.34313 14.1133 9.43173 14.3031 9.57986C14.4726 9.73846 14.6168 9.92303 14.7357 10.1336C14.8496 10.3596 14.9456 10.5884 15.0239 10.8199C15.0818 11.0618 15.137 11.2857 15.1895 11.4916C15.692 11.1423 16.1927 10.9039 16.6917 10.7764C17.1858 10.6644 17.7367 10.6654 18.3447 10.7794C18.8555 10.8787 19.3285 11.017 19.7633 11.1942C20.1983 11.3715 20.6465 11.613 21.1078 11.919C21.7127 12.3064 22.1626 12.78 22.4575 13.3399C22.732 13.9103 22.8945 14.5124 22.9451 15.1464C22.9755 15.7908 22.8934 16.4412 22.6993 17.0976C22.5051 17.7539 22.2214 18.3723 21.8482 18.9527C21.3641 19.7196 20.8226 20.2961 20.2234 20.6823C19.6243 21.0684 18.9961 21.3077 18.3386 21.4003ZM18.6386 18.4895C18.9232 18.343 19.1742 18.1426 19.3918 17.8882C19.6092 17.6339 19.7856 17.3489 19.9212 17.0333C20.0412 16.7127 20.1153 16.3769 20.1432 16.0261C20.1713 15.6752 20.1408 15.3479 20.0518 15.0443C19.9682 14.7768 19.7674 14.505 19.4489 14.2289C19.1256 13.9683 18.7696 13.757 18.3807 13.5949C17.9304 13.4126 17.4916 13.4056 17.0643 13.5738C16.6217 13.737 16.2487 14.0003 15.9453 14.3635C15.6215 14.7373 15.39 15.167 15.2507 15.6529C15.1065 16.1542 15.0922 16.6468 15.208 17.1306C15.2974 17.4858 15.473 17.7836 15.7349 18.024C15.9816 18.2594 16.2736 18.4325 16.6111 18.5434C16.9436 18.6699 17.2986 18.7265 17.676 18.7133C18.0331 18.7107 18.354 18.636 18.6386 18.4895Z" fill="#FFC01D"/>
<path d="M68.1531 35.5516C69.3383 36.7496 71.1693 36.9993 72.6262 36.1616L81.1999 31.2312C82.2717 30.615 82.469 29.1364 81.5969 28.255C81.0443 27.6962 80.2057 27.5445 79.4954 27.8748L72.2214 31.2585C70.9822 31.8346 69.5194 31.5701 68.555 30.5952L67.577 29.6066C66.8446 28.8662 65.657 28.8662 64.9246 29.6066C64.1921 30.347 64.1921 31.5475 64.9246 32.2879L68.1531 35.5516Z" fill="#FFC01D"/>
</svg>
