<svg width="38" height="38" viewBox="0 0 38 38" fill="none" xmlns="http://www.w3.org/2000/svg">
<g filter="url(#filter0_d_53_10)">
<rect width="30" height="30" rx="7" transform="matrix(1 0 0 -1 4 30)" fill="white" fill-opacity="0.9" shape-rendering="crispEdges"/>
</g>
<path d="M23.1642 15.3826C23.6066 15.6595 23.9804 15.9873 24.2855 16.3662C24.6059 16.7305 24.8576 17.1823 25.0406 17.7215C25.239 18.3189 25.3381 18.9237 25.3381 19.5357C25.3534 20.1332 25.239 20.6942 24.9949 21.2189C24.766 21.7289 24.3923 22.1806 23.8736 22.5741C23.3702 22.953 22.7066 23.2226 21.8828 23.3829C21.4404 23.4849 20.9217 23.565 20.3268 23.6233C19.7319 23.6816 19.1979 23.7107 18.725 23.7107C18.1301 23.7253 17.5122 23.7253 16.8715 23.7107C16.246 23.7107 15.6358 23.6525 15.0409 23.5359C14.7815 23.463 14.5908 23.3391 14.4688 23.1643C14.362 22.9748 14.2857 22.7635 14.24 22.5304C14.1789 22.3992 14.1484 22.2681 14.1484 22.1369V9.72119C14.1484 9.31316 14.2323 8.99985 14.4001 8.78127C14.5832 8.54811 14.8197 8.38052 15.1095 8.27852C15.3994 8.16194 15.7274 8.09636 16.0935 8.08179C16.4596 8.05264 16.841 8.03807 17.2376 8.03807C17.5427 8.03807 17.8478 8.03807 18.153 8.03807C18.4733 8.0235 18.7937 8.0235 19.114 8.03807C19.6175 8.05264 20.1361 8.09636 20.6701 8.16922C21.2192 8.22751 21.7379 8.34409 22.226 8.51896C22.4549 8.59182 22.699 8.69383 22.9583 8.82498C23.2176 8.94156 23.4236 9.08729 23.5761 9.26216C24.0643 9.68476 24.4228 10.1802 24.6516 10.7485C24.8957 11.3023 25.0025 11.8706 24.972 12.4535C24.9415 13.0219 24.7737 13.5683 24.4686 14.0929C24.1787 14.6175 23.7439 15.0474 23.1642 15.3826ZM19.1598 21.1751C19.6327 21.146 20.1133 21.095 20.6014 21.0221C21.0895 20.9493 21.4251 20.8108 21.6082 20.6068C21.8065 20.3737 21.9438 20.1041 22.0201 19.798C22.1116 19.4774 22.1345 19.1569 22.0887 18.8363C22.0582 18.5011 21.9591 18.1878 21.7913 17.8963C21.6387 17.5903 21.4328 17.3499 21.1734 17.175C20.8226 16.9127 20.4184 16.7451 19.9607 16.6722C19.503 16.5848 19.053 16.5411 18.6106 16.5411C18.397 16.5411 18.1987 16.5484 18.0157 16.563C17.8478 16.563 17.6953 16.5848 17.558 16.6285C17.436 16.6577 17.3444 16.7233 17.2834 16.8253C17.2224 16.9273 17.1919 17.0803 17.1919 17.2843C17.2224 17.6632 17.2224 18.0421 17.1919 18.4209C17.1614 18.7998 17.1461 19.1641 17.1461 19.5139C17.1461 19.7179 17.1385 19.9438 17.1232 20.1915C17.1232 20.4247 17.2071 20.6214 17.3749 20.7817C17.5427 20.942 17.7868 21.0513 18.1072 21.1096C18.4275 21.1678 18.7784 21.1897 19.1598 21.1751ZM19.6175 10.683C19.1445 10.6684 18.7479 10.6611 18.4275 10.6611C18.1224 10.6465 17.8784 10.6684 17.6953 10.7267C17.5275 10.7704 17.4054 10.8797 17.3292 11.0546C17.2681 11.2149 17.2453 11.4626 17.2605 11.7978C17.2605 12.0746 17.2529 12.3515 17.2376 12.6284C17.2376 12.8907 17.2376 13.153 17.2376 13.4153C17.2376 13.7068 17.3368 13.9253 17.5351 14.0711C17.7334 14.2022 17.9775 14.2824 18.2674 14.3115C18.5725 14.3407 18.8852 14.3407 19.2056 14.3115C19.5412 14.2824 19.831 14.2459 20.0751 14.2022C20.6243 14.1148 21.0438 13.9399 21.3336 13.6776C21.6387 13.4007 21.8141 13 21.8599 12.4754C21.9209 11.8196 21.7379 11.3679 21.3107 11.1201C20.8988 10.8578 20.3345 10.7121 19.6175 10.683Z" fill="#FFC01D"/>
<path d="M20.259 17.7127C19.7109 17.7916 19.1622 17.7954 18.6128 17.7244C18.0584 17.6685 17.54 17.5324 17.0575 17.3162C16.5541 17.11 16.1025 16.8287 15.7025 16.4721C15.2974 16.1304 14.9544 15.7085 14.6735 15.2063C14.3977 14.689 14.229 14.1636 14.1674 13.6298C14.1057 13.0961 14.1248 12.5293 14.2247 11.9295C14.2947 11.5196 14.3151 11.1276 14.2861 10.7534C14.2571 10.3791 14.2202 10.0025 14.1754 9.62337C14.1149 9.23939 14.0702 8.86028 14.0411 8.48606C13.9964 8.10696 13.9881 7.72261 14.0165 7.333C14.0554 6.9633 14.2018 6.63525 14.4557 6.34889C14.6887 6.07265 15.0223 5.96046 15.4565 6.01228C15.7076 6.04046 15.9304 6.12624 16.1248 6.26963C16.2985 6.42317 16.4462 6.60185 16.568 6.80566C16.6847 7.0245 16.7831 7.24597 16.8633 7.47005C16.9226 7.70427 16.9791 7.92104 17.0329 8.12035C17.5477 7.78221 18.0607 7.55141 18.5719 7.42796C19.078 7.31954 19.6425 7.32052 20.2653 7.43093C20.7886 7.52705 21.2732 7.6609 21.7186 7.83247C22.1643 8.00404 22.6235 8.23791 23.096 8.5341C23.7157 8.90912 24.1766 9.36764 24.4787 9.90967C24.76 10.4618 24.9264 11.0448 24.9783 11.6585C25.0094 12.2823 24.9253 12.9119 24.7264 13.5474C24.5275 14.1828 24.2369 14.7814 23.8546 15.3433C23.3586 16.0857 22.8038 16.6438 22.19 17.0176C21.5762 17.3914 20.9326 17.6231 20.259 17.7127ZM20.5664 14.8949C20.8579 14.753 21.1151 14.559 21.338 14.3128C21.5607 14.0666 21.7415 13.7907 21.8803 13.4852C22.0033 13.1748 22.0792 12.8497 22.1078 12.51C22.1366 12.1704 22.1053 11.8536 22.0142 11.5597C21.9286 11.3007 21.7228 11.0375 21.3965 10.7703C21.0653 10.518 20.7006 10.3134 20.3022 10.1565C19.8409 9.98005 19.3914 9.97326 18.9536 10.1361C18.5002 10.2941 18.118 10.5489 17.8072 10.9006C17.4755 11.2624 17.2383 11.6785 17.0956 12.1488C16.9479 12.6341 16.9333 13.1109 17.0519 13.5794C17.1434 13.9232 17.3234 14.2115 17.5917 14.4442C17.8444 14.6721 18.1435 14.8397 18.4893 14.9471C18.83 15.0695 19.1936 15.1243 19.5803 15.1116C19.9461 15.109 20.2748 15.0367 20.5664 14.8949Z" fill="#FFC01D"/>
<defs>
<filter id="filter0_d_53_10" x="0" y="0" width="38" height="38" filterUnits="userSpaceOnUse" color-interpolation-filters="sRGB">
<feFlood flood-opacity="0" result="BackgroundImageFix"/>
<feColorMatrix in="SourceAlpha" type="matrix" values="0 0 0 0 0 0 0 0 0 0 0 0 0 0 0 0 0 0 127 0" result="hardAlpha"/>
<feOffset dy="4"/>
<feGaussianBlur stdDeviation="2"/>
<feComposite in2="hardAlpha" operator="out"/>
<feColorMatrix type="matrix" values="0 0 0 0 0.904167 0 0 0 0 0.904167 0 0 0 0 0.904167 0 0 0 0.25 0"/>
<feBlend mode="normal" in2="BackgroundImageFix" result="effect1_dropShadow_53_10"/>
<feBlend mode="normal" in="SourceGraphic" in2="effect1_dropShadow_53_10" result="shape"/>
</filter>
</defs>
</svg>
