<svg width="32" height="32" viewBox="0 0 32 32" fill="none" xmlns="http://www.w3.org/2000/svg">
<path d="M6.66683 25.3333C5.93045 25.3333 5.3335 24.7364 5.3335 24C5.3335 23.2636 5.93045 22.6667 6.66683 22.6667H8.00016V13.3333C8.00016 11.4889 8.55572 9.84999 9.66683 8.41666C10.7779 6.98332 12.2224 6.04444 14.0002 5.59999V4.66666C14.0002 4.1111 14.1946 3.63888 14.5835 3.24999C14.9724 2.8611 15.4446 2.66666 16.0002 2.66666C16.5557 2.66666 17.0279 2.8611 17.4168 3.24999C17.8057 3.63888 18.0002 4.1111 18.0002 4.66666V5.59999C19.7779 6.04444 21.2224 6.98332 22.3335 8.41666C23.4446 9.84999 24.0002 11.4889 24.0002 13.3333V22.6667H25.3335C26.0699 22.6667 26.6668 23.2636 26.6668 24C26.6668 24.7364 26.0699 25.3333 25.3335 25.3333H6.66683ZM16.0002 28C15.2668 28 14.6391 27.7389 14.1168 27.2167C13.5946 26.6944 13.3335 26.0667 13.3335 25.3333H18.6668C18.6668 26.0667 18.4057 26.6944 17.8835 27.2167C17.3613 27.7389 16.7335 28 16.0002 28ZM10.6668 22.6667H21.3335V13.3333C21.3335 11.8667 20.8113 10.6111 19.7668 9.56666C18.7224 8.52221 17.4668 7.99999 16.0002 7.99999C14.5335 7.99999 13.2779 8.52221 12.2335 9.56666C11.1891 10.6111 10.6668 11.8667 10.6668 13.3333V22.6667Z" fill="#EDAC05"/>
</svg>
