<svg width="32" height="32" viewBox="0 0 32 32" fill="none" xmlns="http://www.w3.org/2000/svg">
<path d="M14.9422 29C13.5145 29 12.3105 27.9365 12.1343 26.5197L12.0345 25.7175C11.9673 25.1772 11.5976 24.7342 11.1331 24.45C10.6695 24.1664 10.0991 24.0919 9.5984 24.3033L8.90256 24.5971C7.56312 25.1627 6.01217 24.6414 5.2864 23.3815L4.25323 21.588C3.53664 20.344 3.85548 18.7614 4.99786 17.892L5.98047 17.1442C6.1968 16.9795 6.29851 16.7106 6.29851 16.4388V15.5613C6.29851 15.2894 6.1968 15.0205 5.98047 14.8558L4.99786 14.108C3.85548 13.2386 3.53663 11.656 4.25323 10.412L5.2864 8.61852C6.01217 7.35865 7.56312 6.83726 8.90256 7.40287L9.58587 7.69141C10.0943 7.90611 10.6731 7.82914 11.1493 7.55C11.613 7.2781 11.9663 6.83091 12.0327 6.2974L12.1304 5.51193C12.3088 4.07712 13.5282 3 14.9741 3H17.0578C18.4855 3 19.6895 4.06355 19.8657 5.48029L19.9655 6.28249C20.0327 6.82284 20.4024 7.26585 20.8669 7.55C21.3305 7.83361 21.9009 7.90812 22.4016 7.6967L23.0974 7.40287C24.4369 6.83726 25.9878 7.35865 26.7136 8.61851L27.7468 10.412C28.4634 11.656 28.1445 13.2386 27.0021 14.108L26.0195 14.8558C25.8032 15.0205 25.7015 15.2894 25.7015 15.5613V16.4388C25.7015 16.7071 25.7773 16.9844 25.9909 17.147L27.0916 17.9847C28.1643 18.8011 28.4637 20.2873 27.7908 21.4554L26.672 23.3976C25.9521 24.6473 24.4122 25.1624 23.0852 24.5973L22.4131 24.3111C21.9055 24.0949 21.3267 24.171 20.8507 24.45C20.387 24.7219 20.0337 25.1691 19.9673 25.7026L19.8696 26.4881C19.6912 27.9229 18.4718 29 17.0259 29H14.9422ZM14.551 25.1261C14.6398 25.8533 15.2572 26.4 15.9898 26.4C16.7173 26.4 17.3321 25.8607 17.4269 25.1394L17.5172 24.4521C17.6361 23.5472 18.3094 22.8362 19.1276 22.432C19.2793 22.357 19.4279 22.2768 19.5734 22.1912C19.7156 22.1077 19.8548 22.0197 19.991 21.9274C20.7408 21.4191 21.6881 21.1999 22.5245 21.548L23.1646 21.8144C23.8379 22.0947 24.6146 21.8296 24.9761 21.1962C25.3357 20.566 25.1726 19.767 24.5948 19.3281L23.6093 18.5795C23.1413 18.224 22.9749 17.6068 23.0498 17.0238C23.0929 16.6879 23.1144 16.3467 23.1144 16C23.1144 15.6533 23.0929 15.3121 23.0498 14.9762C22.9749 14.3932 23.1413 13.776 23.6093 13.4205L24.5992 12.6686C25.1745 12.2316 25.3368 11.436 24.9788 10.8086C24.6165 10.1738 23.8361 9.91123 23.1638 10.1979L22.5437 10.4623C21.7006 10.8217 20.7415 10.5897 19.9858 10.0711C19.8513 9.97874 19.7138 9.89129 19.5734 9.80875C19.4276 9.72304 19.2786 9.64263 19.1265 9.5675C18.3103 9.16442 17.6414 8.45099 17.5312 7.54736L17.449 6.87386C17.3602 6.14666 16.7428 5.6 16.0102 5.6C15.2827 5.6 14.6679 6.13928 14.5731 6.86058L14.4828 7.5479C14.3639 8.45275 13.6906 9.1638 12.8724 9.56805C12.7207 9.64301 12.5721 9.72325 12.4266 9.80875C12.2844 9.89235 12.1452 9.98031 12.009 10.0726C11.2592 10.5809 10.3119 10.8001 9.47553 10.452L8.83096 10.1837C8.16016 9.90454 7.38644 10.1686 7.02631 10.7997C6.66602 11.431 6.83256 12.2319 7.41467 12.6672L8.37388 13.3846C8.85328 13.7432 9.02898 14.3665 8.95025 14.96C8.90713 15.285 8.88557 15.6317 8.88557 16C8.88557 16.3467 8.90713 16.6825 8.95025 17.0075C9.0291 17.6018 8.8558 18.2262 8.37837 18.5888L7.40076 19.3314C6.82551 19.7684 6.66316 20.564 7.0212 21.1914C7.38345 21.8262 8.16387 22.0888 8.83618 21.8021L9.45631 21.5377C10.2994 21.1783 11.2585 21.4103 12.0142 21.9289C12.1487 22.0213 12.2862 22.1087 12.4266 22.1912C12.5724 22.277 12.7214 22.3574 12.8735 22.4325C13.6897 22.8356 14.3586 23.549 14.4688 24.4526L14.551 25.1261ZM16.0647 20.55C17.3151 20.55 18.3823 20.1058 19.2662 19.2175C20.1501 18.3292 20.592 17.2567 20.592 16C20.592 14.7433 20.1501 13.6708 19.2662 12.7825C18.3823 11.8942 17.3151 11.45 16.0647 11.45C14.7927 11.45 13.7201 11.8942 12.847 12.7825C11.9739 13.6708 11.5373 14.7433 11.5373 16C11.5373 17.2567 11.9739 18.3292 12.847 19.2175C13.7201 20.1058 14.7927 20.55 16.0647 20.55Z" fill="#EDAC05"/>
</svg>
